<?xml version="1.0" standalone="no"?>
<!DOCTYPE svg PUBLIC "-//W3C//DTD SVG 20010904//EN"
 "http://www.w3.org/TR/2001/REC-SVG-20010904/DTD/svg10.dtd">
<svg version="1.0" xmlns="http://www.w3.org/2000/svg"
 width="233.000000pt" height="160.000000pt" viewBox="0 0 233.000000 160.000000"
 preserveAspectRatio="xMidYMid meet">

<g transform="translate(0.000000,160.000000) scale(0.100000,-0.100000)"
fill="#000000" stroke="none">
<path d="M1109 937 c-144 -184 -169 -212 -190 -209 -14 2 -36 -6 -50 -16 l-24
-19 -99 124 c-62 78 -105 123 -115 121 -13 -3 -133 -137 -216 -242 -20 -25
-26 -28 -39 -17 -28 24 -75 -7 -189 -121 -104 -106 -136 -149 -80 -110 53 37
132 72 164 72 17 0 43 -9 57 -21 l27 -21 3 33 c5 53 15 55 87 19 88 -45 93
-36 35 56 -7 12 -10 29 -6 39 7 18 43 18 141 -1 29 -5 28 -3 -23 43 -69 64
-71 93 -7 152 24 22 49 41 54 41 13 0 151 -178 151 -194 0 -6 -40 -41 -88 -77
-105 -79 -259 -207 -287 -240 -16 -18 -3 -13 60 21 44 23 103 57 130 75 108
69 157 67 279 -11 100 -63 104 -61 50 27 -68 110 -23 116 139 19 55 -33 107
-60 114 -60 18 0 -9 40 -79 119 -47 53 -60 92 -37 107 7 4 44 7 84 8 41 1 77
4 81 8 4 4 -14 30 -39 57 -49 52 -63 86 -53 124 8 32 119 137 145 137 14 0 59
-48 147 -156 123 -152 127 -156 159 -150 29 6 43 -3 186 -126 85 -72 142 -118
127 -102 -14 16 -34 48 -43 72 -10 23 -30 52 -46 63 -36 25 -37 39 -4 39 14 0
25 2 25 4 0 2 -16 20 -35 39 -19 19 -35 45 -35 57 0 31 84 114 103 103 8 -4
47 -52 87 -105 48 -66 78 -98 91 -98 11 0 56 -37 105 -87 l86 -88 -48 70 c-82
120 -104 145 -128 145 -18 0 -39 26 -102 125 -43 69 -84 125 -90 125 -6 0 -46
-40 -89 -90 -43 -49 -81 -90 -85 -90 -4 0 -13 7 -20 16 -8 9 -25 14 -44 12
-29 -3 -39 7 -174 177 -79 99 -148 188 -153 198 -5 9 -15 17 -22 17 -7 0 -87
-96 -178 -213z"/>
<path d="M1285 620 c6 -10 79 -50 91 -50 13 0 -20 31 -47 46 -33 16 -53 18
-44 4z"/>
</g>
</svg>
